<svg xmlns="http://www.w3.org/2000/svg" width="800" height="800" viewBox="0 0 614.4 614.4"><path d="M448.118 351.402h47.018v-75.629c-11.104 2.554 -29.453 6.744 -47.008 10.593L448.118 351.402z" id="front_wing_top" fill="#000000" stroke="#000000" stroke-width="2" transform="translate(51.2,51.2)" /><path d="M495.136 160.599h-47.008v65.035c17.555 3.85 35.904 8.03 47.008 10.584V160.599z" id="front_wing_bottom" fill="#000000" stroke="#000000" stroke-width="2" transform="translate(51.2,51.2)" /><path d="M62.217 159.681h72.206c5.77 0 10.452 -4.692 10.452 -10.461v-35.328c0 -5.779 -4.682 -10.451 -10.452 -10.451H62.217c-5.769 0 -10.442 4.672 -10.442 10.451v35.328C51.775 154.99 56.448 159.681 62.217 159.681z" id="rear_tire_top" fill="#000000" transform="translate(51.2,51.2)" /><path d="M134.422 352.329H62.217c-5.769 0 -10.451 4.682 -10.451 10.461v35.317c0 5.77 4.682 10.451 10.451 10.451h72.206c5.77 0 10.452 -4.682 10.452 -10.451v-35.317C144.874 357.011 140.192 352.329 134.422 352.329z" id="rear_tire_bottom" fill="#000000" transform="translate(51.2,51.2)" /><path d="M346.451 158.291h68.507c5.779 0 10.451 -4.682 10.451 -10.452V119.88c0 -5.77 -4.672 -10.442 -10.451 -10.442h-68.507c-5.77 0 -10.452 4.672 -10.452 10.442v27.959C335.999 153.609 340.681 158.291 346.451 158.291z" id="front_tire_top" fill="#000000" transform="translate(51.2,51.2)" /><path d="M414.958 353.711h-68.507c-5.77 0 -10.452 4.672 -10.452 10.442v27.959c0 5.77 4.682 10.461 10.452 10.461h68.507c5.779 0 10.451 -4.692 10.451 -10.461v-27.959C425.409 358.383 420.737 353.711 414.958 353.711z" id="front_tire_bottom" fill="#000000" transform="translate(51.2,51.2)" /><path d="M57.147 175.343L0.009 175.343 0 336.647 57.147 336.647Z" id="rear_wing" fill="#000000" stroke="#000000" stroke-width="2" transform="translate(51.2,51.2)" /><path d="M503.763 245.781c0 0 -66.446 -15.465 -92.844 -20.383c-26.399 -4.899 -91.51 -16.42 -91.51 -16.42s-3.008 -11.18 -4.606 -20.27c-2.771 -15.672 -16.59 -31.335 -51.624 -31.335c-35.024 0 -47.018 0 -66.369 0c-50.697 0 -42.374 48.852 -73.067 48.852c-30.692 0 -54.215 0 -54.215 0v99.549c0 0 23.523 0 54.215 0c30.693 0 22.37 48.863 73.067 48.863c19.351 0 31.335 0 66.369 0s48.853 -15.673 51.624 -31.346c1.598 -9.08 4.606 -20.278 4.606 -20.278s65.111 -11.511 91.51 -16.42c26.398 -4.91 92.844 -20.373 92.844 -20.373c4.814 -1.06 8.237 -5.307 8.237 -10.215C512 251.087 508.576 246.83 503.763 245.781zM295.895 280.275c-22.983 0 -28.896 -10.867 -28.896 -24.27c0 -13.412 5.912 -24.28 28.896 -24.28c22.984 0 41.617 10.868 41.617 24.28C337.512 269.408 318.88 280.275 295.895 280.275z" id="main_body" fill="#000000" stroke="#000000" stroke-width="2" transform="translate(51.2,51.2)" /><path d="M390.054 214.114v-44.767h-11.057v42.761C382.761 212.781 386.478 213.461 390.054 214.114z" id="front_susp_top" fill="#000000" transform="translate(51.2,51.2)" /><path d="M378.996 299.892v42.752h11.057v-44.738C386.478 298.54 382.761 299.211 378.996 299.892z" id="front_susp_bottom" fill="#000000" transform="translate(51.2,51.2)" /><path d="M90.469 169.347H101.526V198.848H90.469V169.347Z" id="rear_susp_top" fill="#000000" transform="translate(51.2,51.2)" /><path d="M90.469 313.153H101.526V342.644H90.469V313.153Z" id="rear_susp_bottom" fill="#000000" transform="translate(51.2,51.2)" /></svg>